<svg width="60" height="60" viewBox="0 0 60 60" fill="none" xmlns="http://www.w3.org/2000/svg">
<path d="M17.4872 17.5159C16.5108 18.4922 16.5108 20.0751 17.4872 21.0514L26.45 30.0142L17.4872 38.9772C16.5108 39.9535 16.5108 41.5365 17.4872 42.5127C18.4635 43.489 20.0464 43.489 21.0227 42.5127L29.9855 33.5497L38.9485 42.5127C39.9248 43.489 41.5078 43.489 42.484 42.5127C43.4603 41.5365 43.4603 39.9535 42.484 38.9772L33.521 30.0142L42.484 21.0515C43.4603 20.0752 43.4603 18.4922 42.484 17.5159C41.5075 16.5396 39.9248 16.5396 38.9485 17.5159L29.9855 26.4788L21.0227 17.5159C20.0464 16.5396 18.4635 16.5396 17.4872 17.5159Z" fill="black"/>
</svg>
