<svg width="60" height="60" viewBox="0 0 60 60" fill="none" xmlns="http://www.w3.org/2000/svg">
<path fill-rule="evenodd" clip-rule="evenodd" d="M6.298 19.5569C5 21.9282 5 24.7887 5 30.5098V34.3125C5 44.0645 5 48.9408 7.92893 51.9702C10.8579 55 15.5719 55 25 55H35C44.428 55 49.1423 55 52.071 51.9702C55 48.9408 55 44.0645 55 34.3125V30.5098C55 24.7887 55 21.9282 53.702 19.5569C52.404 17.1855 50.0327 15.7138 45.29 12.7703L40.29 9.66717C35.2765 6.55572 32.7698 5 30 5C27.2302 5 24.7235 6.55572 19.7101 9.66717L14.7101 12.7703C9.96737 15.7138 7.596 17.1855 6.298 19.5569ZM22.5 43.125C21.4645 43.125 20.625 43.9645 20.625 45C20.625 46.0355 21.4645 46.875 22.5 46.875H37.5C38.5355 46.875 39.375 46.0355 39.375 45C39.375 43.9645 38.5355 43.125 37.5 43.125H22.5Z" fill="black"/>
</svg>
