<svg width="253" height="203" viewBox="0 0 253 203" fill="none" xmlns="http://www.w3.org/2000/svg">
<g clip-path="url(#clip0_380_1446)">
<path d="M242.978 0.000301519H167.033C163.368 0.000123149 159.812 1.23912 156.95 3.51361C154.087 5.78811 152.089 8.96274 151.283 12.5156L112.91 181.666C112.491 183.511 112.484 185.425 112.888 187.273C113.293 189.121 114.099 190.859 115.25 192.365C116.402 193.871 117.871 195.108 119.555 195.99C121.238 196.871 123.096 197.377 124.996 197.47L203.069 201.292C207.249 201.497 211.362 200.183 214.639 197.596C217.917 195.008 220.135 191.324 220.88 187.231L242.649 67.6402L244.268 68.1L248.434 45.4328L246.768 45.0188L252.844 11.6364C253.104 10.2065 253.044 8.73719 252.667 7.33311C252.291 5.92903 251.607 4.62481 250.665 3.51343C249.723 2.40205 248.546 1.51088 247.218 0.903469C245.889 0.296054 244.443 -0.0126516 242.98 -0.000638966L242.978 0.000301519Z" fill="#3F3D56"/>
<path d="M177.03 3.64673H168.165C165.62 3.64675 163.15 4.51203 161.167 6.09893C159.185 7.68583 157.808 9.89889 157.265 12.3708L120.431 180.141C120.219 181.107 120.219 182.107 120.431 183.073C120.644 184.039 121.064 184.948 121.662 185.738C122.26 186.528 123.023 187.18 123.899 187.65C124.774 188.12 125.741 188.397 126.734 188.461L204.552 193.53C206.748 193.673 208.919 193.008 210.653 191.661C212.386 190.314 213.559 188.381 213.95 186.229L245.38 12.8215C245.583 11.6992 245.536 10.5461 245.242 9.44375C244.948 8.34139 244.415 7.31658 243.679 6.44163C242.943 5.56667 242.022 4.8629 240.983 4.37998C239.943 3.89706 238.81 3.64675 237.662 3.64673H229.253C228.439 3.64671 227.648 3.91334 227.001 4.40536C226.355 4.89738 225.891 5.58734 225.679 6.36842C225.492 7.05822 225.082 7.66752 224.511 8.10195C223.94 8.53639 223.241 8.77169 222.523 8.77143H182.599C181.192 8.77139 179.837 8.24358 178.804 7.2935C177.772 6.34342 177.138 5.04106 177.03 3.64673Z" fill="white"/>
<path d="M220.048 120.933C220.199 120.938 220.347 120.889 220.465 120.794C220.583 120.7 220.663 120.567 220.69 120.419L237.899 26.031C237.916 25.9412 237.912 25.8491 237.89 25.7607C237.867 25.6724 237.825 25.59 237.768 25.5191C237.71 25.4487 237.638 25.3918 237.557 25.3522C237.475 25.3127 237.385 25.2916 237.294 25.2904L159 24.3713H158.992C158.85 24.3725 158.713 24.4217 158.602 24.5107C158.492 24.5997 158.415 24.7233 158.385 24.8613L138.098 116.186C138.078 116.275 138.078 116.367 138.097 116.456C138.116 116.545 138.155 116.629 138.21 116.703C138.264 116.775 138.334 116.835 138.415 116.877C138.495 116.92 138.584 116.944 138.675 116.949L220.048 120.933Z" fill="#E6E6E6"/>
<path d="M152.104 127.035C152.033 127.035 151.964 127.059 151.908 127.103C151.852 127.147 151.813 127.209 151.797 127.278L151.064 130.401C151.053 130.445 151.053 130.491 151.062 130.535C151.071 130.579 151.09 130.621 151.117 130.658C151.144 130.694 151.178 130.725 151.218 130.746C151.258 130.768 151.302 130.782 151.348 130.785L192.768 133.71C192.845 133.715 192.921 133.692 192.982 133.646C193.043 133.599 193.085 133.532 193.1 133.457L193.805 129.844C193.814 129.8 193.813 129.755 193.802 129.712C193.792 129.668 193.772 129.628 193.745 129.592C193.717 129.557 193.682 129.528 193.643 129.507C193.603 129.486 193.559 129.474 193.514 129.472L152.123 127.036L152.104 127.035Z" fill="#E6E6E6"/>
<path d="M202.427 145.31C202.501 145.316 202.576 145.296 202.637 145.252C202.697 145.208 202.741 145.145 202.759 145.072L203.656 141.452C203.667 141.407 203.668 141.361 203.659 141.316C203.651 141.272 203.632 141.229 203.605 141.192C203.578 141.155 203.543 141.125 203.503 141.102C203.463 141.08 203.418 141.067 203.372 141.064L150.476 137.387C150.404 137.382 150.333 137.401 150.274 137.442C150.214 137.482 150.171 137.542 150.151 137.611L149.219 140.74C149.205 140.785 149.202 140.832 149.21 140.878C149.217 140.924 149.235 140.968 149.261 141.006C149.288 141.045 149.323 141.077 149.363 141.1C149.404 141.123 149.449 141.138 149.496 141.141L202.427 145.31Z" fill="#E6E6E6"/>
<path d="M199.586 156.916C199.661 156.922 199.735 156.901 199.796 156.858C199.857 156.814 199.9 156.751 199.918 156.678L200.816 153.058C200.827 153.013 200.828 152.967 200.819 152.922C200.81 152.877 200.791 152.835 200.764 152.798C200.737 152.761 200.702 152.73 200.662 152.708C200.622 152.686 200.577 152.673 200.532 152.67L147.636 148.993C147.564 148.987 147.492 149.007 147.433 149.047C147.374 149.088 147.331 149.148 147.311 149.217L146.378 152.346C146.365 152.39 146.362 152.437 146.369 152.483C146.376 152.529 146.394 152.573 146.421 152.612C146.447 152.65 146.482 152.682 146.523 152.706C146.563 152.729 146.609 152.743 146.655 152.747L199.586 156.916Z" fill="#E6E6E6"/>
<path d="M107.875 197.774C107.875 200.399 83.6962 200.678 53.9375 202.527C24.2053 204.373 0 200.399 0 197.774C0 195.149 24.3182 189.867 53.9375 193.021C83.6962 196.189 107.875 195.149 107.875 197.774Z" fill="#E6E6E6"/>
<path d="M175.224 176.756C175.3 176.764 175.375 176.744 175.437 176.701C175.499 176.657 175.543 176.593 175.56 176.52L177.458 168.976C177.469 168.931 177.47 168.885 177.462 168.841C177.453 168.796 177.435 168.754 177.409 168.717C177.382 168.68 177.348 168.649 177.308 168.627C177.268 168.604 177.224 168.59 177.178 168.587L144.695 165.871C144.619 165.866 144.544 165.888 144.483 165.933C144.422 165.977 144.378 166.042 144.361 166.116L142.742 173.356C142.732 173.4 142.732 173.445 142.741 173.488C142.75 173.532 142.768 173.573 142.795 173.609C142.821 173.645 142.855 173.675 142.894 173.697C142.933 173.719 142.976 173.733 143.02 173.737L175.224 176.756Z" fill="#F15B55"/>
<path d="M44.0645 146.014C44.4735 145.736 44.8161 145.372 45.0681 144.947C45.3201 144.523 45.4754 144.049 45.523 143.558C45.5706 143.068 45.5094 142.573 45.3437 142.108C45.1779 141.644 44.9117 141.221 44.5638 140.87L45.8791 111.694L39.183 112.44L39.5722 140.979C39.0169 141.599 38.7096 142.399 38.7087 143.229C38.7079 144.059 39.0134 144.86 39.5673 145.481C40.1213 146.101 40.8852 146.498 41.7142 146.597C42.5432 146.695 43.3796 146.487 44.0648 146.013L44.0645 146.014Z" fill="#A0616A"/>
<path d="M56.2803 195.404L60.0915 196.07L63.8582 181.778L58.8646 180.795L56.2803 195.404Z" fill="#A0616A"/>
<path d="M66.8206 200.871L54.8428 198.778L55.6564 194.179L63.0064 195.464C64.2337 195.678 65.3251 196.368 66.0404 197.382C66.7557 198.396 67.0363 199.651 66.8206 200.871L66.8206 200.871Z" fill="#2F2E41"/>
<path d="M45.8197 197.3H49.6893L51.5301 182.467H45.8191L45.8197 197.3Z" fill="#A0616A"/>
<path d="M57.1509 200.871L44.9894 200.872L44.9891 196.202L52.4519 196.202C53.6981 196.202 54.8932 196.694 55.7745 197.57C56.6557 198.445 57.1508 199.633 57.1509 200.871Z" fill="#2F2E41"/>
<path d="M61.9639 191.983C61.9036 191.984 61.8433 191.98 61.7834 191.973L57.2288 191.6C57.0215 191.576 56.8212 191.51 56.6403 191.407C56.4593 191.303 56.3014 191.164 56.1762 190.998C56.0509 190.832 55.9609 190.643 55.9117 190.441C55.8624 190.239 55.8549 190.03 55.8896 189.825L60.411 167.655L57.5704 152.764C57.5472 152.643 57.4808 152.534 57.3834 152.458C57.286 152.382 57.1642 152.344 57.0404 152.35C56.9166 152.356 56.7992 152.406 56.7099 152.492C56.6205 152.577 56.5653 152.692 56.5543 152.814L52.3688 190.651C52.3297 191.05 52.1364 191.417 51.8296 191.677C51.5228 191.937 51.1266 192.068 50.7244 192.043L46.4334 191.884C46.0574 191.858 45.7042 191.695 45.4404 191.427C45.1766 191.16 45.0206 190.806 45.0017 190.431L45.3445 144.709L67.5903 141.945L69.1444 165.797L69.1381 165.822L63.4597 190.814C63.378 191.147 63.1862 191.443 62.915 191.655C62.6438 191.867 62.3089 191.983 61.9639 191.983Z" fill="#2F2E41"/>
<path d="M52.6806 92.7879C56.962 92.7879 60.4328 89.3387 60.4328 85.0839C60.4328 80.8291 56.962 77.3799 52.6806 77.3799C48.3992 77.3799 44.9285 80.8291 44.9285 85.0839C44.9285 89.3387 48.3992 92.7879 52.6806 92.7879Z" fill="#A0616A"/>
<path d="M59.9849 148.188C58.7724 148.195 57.5833 147.857 56.5581 147.214C52.8021 144.881 48.5377 145.808 46.3295 146.569C46.1104 146.645 45.8767 146.671 45.646 146.645C45.4153 146.619 45.1935 146.541 44.9973 146.418C44.8033 146.297 44.6393 146.134 44.5178 145.941C44.3962 145.748 44.3202 145.53 44.2953 145.304L40.2802 109.663C39.6073 103.692 43.2269 98.0773 48.8867 96.3135C49.0995 96.2472 49.3157 96.1845 49.5354 96.1253C51.2967 95.6508 53.1412 95.5656 54.9392 95.8757C56.7372 96.1859 58.4449 96.8838 59.9423 97.9204C61.4675 98.9684 62.7432 100.336 63.6793 101.927C64.6154 103.517 65.1894 105.293 65.3607 107.128L68.7414 143.007C68.7644 143.239 68.7328 143.474 68.6492 143.692C68.5656 143.91 68.4321 144.106 68.2594 144.264C67.0739 145.353 63.6342 148.188 59.9849 148.188Z" fill="#F15B55"/>
<path d="M47.7571 117.306L38.6986 116.316C38.4408 116.288 38.1922 116.205 37.9696 116.073C37.747 115.94 37.5558 115.762 37.4089 115.55C37.2619 115.337 37.1628 115.096 37.1182 114.842C37.0736 114.588 37.0846 114.328 37.1504 114.078L39.4564 105.344C39.5243 104.689 39.7221 104.055 40.0384 103.476C40.3547 102.898 40.7831 102.388 41.299 101.975C41.8148 101.562 42.4079 101.255 43.0438 101.072C43.6798 100.888 44.3461 100.832 45.0042 100.906C45.6622 100.979 46.299 101.182 46.8778 101.502C47.4566 101.822 47.9658 102.253 48.3761 102.769C48.7863 103.286 49.0895 103.878 49.2681 104.512C49.4466 105.146 49.497 105.808 49.4164 106.462L49.7588 115.456C49.7686 115.714 49.7225 115.97 49.6234 116.208C49.5244 116.447 49.3749 116.661 49.1851 116.837C48.9952 117.012 48.7695 117.145 48.5233 117.226C48.2771 117.307 48.0162 117.335 47.7584 117.307L47.7571 117.306Z" fill="#F15B55"/>
<path d="M68.7044 144.765C69.0765 144.44 69.3723 144.037 69.5708 143.586C69.7694 143.134 69.866 142.645 69.8538 142.153C69.8416 141.66 69.7209 141.176 69.5001 140.735C69.2794 140.294 68.9641 139.907 68.5763 139.6L66.3438 110.478L59.7822 111.946L63.6329 140.306C63.1567 140.988 62.9488 141.819 63.0485 142.643C63.1482 143.466 63.5486 144.225 64.1738 144.775C64.799 145.325 65.6055 145.628 66.4404 145.626C67.2752 145.624 68.0804 145.318 68.7032 144.765H68.7044Z" fill="#A0616A"/>
<path d="M57.267 115.475C57.0771 115.3 56.9275 115.086 56.8285 114.848C56.7295 114.609 56.6833 114.353 56.6932 114.095L57.0357 105.101C56.9618 104.451 57.0175 103.793 57.1996 103.164C57.3816 102.536 57.6864 101.949 58.0967 101.438C58.5069 100.926 59.0145 100.5 59.5904 100.184C60.1663 99.8672 60.7994 99.6665 61.4534 99.5931C62.1073 99.5197 62.7695 99.5751 63.4019 99.756C64.0344 99.9369 64.6248 100.24 65.1394 100.647C65.6541 101.055 66.0829 101.56 66.4014 102.132C66.7199 102.704 66.9218 103.333 66.9956 103.983L69.3016 112.718C69.3674 112.967 69.3784 113.227 69.3338 113.481C69.2892 113.735 69.1901 113.977 69.0432 114.189C68.8963 114.401 68.705 114.58 68.4824 114.712C68.2599 114.844 68.0112 114.927 67.7535 114.955L58.6949 115.945C58.4371 115.974 58.1761 115.946 57.9299 115.865C57.6837 115.784 57.458 115.651 57.2683 115.475L57.267 115.475Z" fill="#F15B55"/>
<path d="M52.2196 93.0781C52.0814 93.078 51.9437 93.0622 51.8093 93.0307L51.7698 93.0213C44.9541 91.9862 43.4476 88.0616 43.1172 86.4233C42.775 84.727 43.1645 83.0896 44.0451 82.4535C43.565 80.9479 43.6421 79.6114 44.2746 78.4819C45.3793 76.512 47.7721 75.8471 48.0937 75.7643C50.0058 74.3625 52.2934 75.2981 52.7097 75.4879C56.4086 74.1282 57.8229 75.2599 58.078 75.5127C59.7312 75.8079 60.739 76.4424 61.0736 77.3997C61.702 79.1973 59.7148 81.4335 59.6299 81.5279L59.5857 81.5768L56.6251 81.717C56.3442 81.7304 56.0692 81.8022 55.818 81.928C55.5668 82.0537 55.3451 82.2305 55.1671 82.4469C54.9891 82.6633 54.8588 82.9145 54.7848 83.1841C54.7108 83.4538 54.6946 83.7359 54.7373 84.0121C54.8174 84.3685 54.9186 84.7199 55.0404 85.0645C55.5454 86.6347 55.9241 87.9763 55.4361 88.4863C55.3254 88.585 55.189 88.6507 55.0425 88.6759C54.896 88.7012 54.7453 88.6849 54.6076 88.629C54.1446 88.5061 53.8305 88.5318 53.674 88.7059C53.431 88.9753 53.5051 89.6578 53.8829 90.6271C54.0015 90.9336 54.0334 91.2666 53.9752 91.5898C53.917 91.9131 53.7709 92.2144 53.5528 92.4611C53.3885 92.6536 53.1842 92.8085 52.954 92.915C52.7237 93.0215 52.4729 93.0771 52.2189 93.0781H52.2196Z" fill="#2F2E41"/>
</g>
<defs>
<clipPath id="clip0_380_1446">
<rect width="253" height="203" fill="white"/>
</clipPath>
</defs>
</svg>
