<svg width="232" height="100" viewBox="0 0 232 100" fill="none" xmlns="http://www.w3.org/2000/svg">
<g clip-path="url(#clip0_103_619)">
<path fill-rule="evenodd" clip-rule="evenodd" d="M126.26 22.6291C126.265 22.5628 126.273 22.474 126.289 22.4116C126.089 22.474 125.921 22.5628 125.723 22.6291H126.26Z" fill="#F15B55"/>
<path fill-rule="evenodd" clip-rule="evenodd" d="M115.644 21.1066C115.836 20.5814 116.068 20.1569 116.336 19.7762C116.247 19.767 116.163 19.767 116.068 19.7537C114.587 19.7577 112.9 19.9089 110.926 20.2086C109.99 20.3479 108.996 20.5111 107.976 20.7299C107.919 21.3626 107.883 22.0006 107.832 22.6293H115.527C115.44 22.1372 115.476 21.6226 115.644 21.1066Z" fill="#F15B55"/>
<path fill-rule="evenodd" clip-rule="evenodd" d="M174.71 21.6354C175.62 20.1565 176.454 18.9177 177.263 17.8964H174.999C175.007 18.0701 175.054 18.2412 175.054 18.4229C175.054 19.0384 174.855 20.5849 174.734 21.459C174.726 21.5174 174.714 21.5784 174.71 21.6354Z" fill="#F15B55"/>
<path fill-rule="evenodd" clip-rule="evenodd" d="M158.971 18.1045C160.531 19.269 161.672 20.809 162.462 22.6287H167.154C167.192 22.191 167.208 21.7162 167.259 21.2918C167.274 20.8607 167.423 19.6882 167.704 17.8962H158.658C158.756 17.9718 158.866 18.0302 158.971 18.1045Z" fill="#F15B55"/>
<path fill-rule="evenodd" clip-rule="evenodd" d="M157.012 77.3532C154.218 78.677 151.778 79.3415 149.608 79.3415C148.318 79.3415 147.099 79.0855 145.968 78.6C145.23 78.2499 144.546 77.8241 143.882 77.3532H136.45C136.407 78.8149 136.235 79.8985 135.934 80.6612C135.691 81.3244 135.351 81.7767 134.972 82.1017H185.422C185.578 80.5286 185.718 78.9436 185.863 77.3532H157.012Z" fill="#F15B55"/>
<path fill-rule="evenodd" clip-rule="evenodd" d="M70.4024 22.6291C71.2384 21.2935 72.0718 20.1594 72.9451 19.2628C73.4438 18.7323 73.9651 18.2906 74.4878 17.8966H34.3504C33.4264 18.975 32.5238 20.0745 31.6971 21.2179C31.3531 21.7139 31.0944 22.1676 30.7851 22.6291H70.4024Z" fill="#F15B55"/>
<path fill-rule="evenodd" clip-rule="evenodd" d="M100.773 22.6291C100.789 22.5549 100.793 22.474 100.801 22.397C100.588 22.474 100.429 22.5628 100.229 22.6291H100.773Z" fill="#F15B55"/>
<path fill-rule="evenodd" clip-rule="evenodd" d="M186.742 17.8964C187.052 18.7651 187.285 19.7666 187.446 20.9391C187.493 21.4219 187.544 22.0015 187.61 22.6289H190.182V21.1115C189.322 20.9072 188.697 20.1565 188.697 19.2373V17.8964H186.742Z" fill="#F15B55"/>
<path fill-rule="evenodd" clip-rule="evenodd" d="M130.265 81.8332C129.397 81.2562 129.083 80.1314 128.889 78.6273C128.847 78.248 128.823 77.7944 128.784 77.3527H121.729C121.699 78.8157 121.537 79.898 121.231 80.6607C121.029 81.2562 120.673 81.7403 120.257 82.1011H130.751C130.581 82.003 130.421 81.9552 130.265 81.8332Z" fill="#F15B55"/>
<path fill-rule="evenodd" clip-rule="evenodd" d="M62.9747 77.3532H4.75733V22.6297H22.0413C22.752 21.0858 23.648 19.5061 24.7493 17.8959H0V82.1017H64.64C64.0493 80.3959 63.4907 78.8003 62.9747 77.3532Z" fill="#F15B55"/>
<path fill-rule="evenodd" clip-rule="evenodd" d="M145.902 19.3323C145.152 19.8602 144.28 19.9239 143.701 19.9239C143.236 19.9239 142.752 19.9093 142.309 19.8337C142.094 19.8178 141.837 19.7886 141.566 19.7541C140.105 19.7567 138.42 19.9093 136.406 20.2051C135.465 20.339 134.476 20.5141 133.456 20.725C133.412 21.351 133.357 22.001 133.318 22.6297H144.14C144.96 21.3126 145.816 20.1692 146.661 19.2633C147.188 18.7407 147.697 18.2911 148.232 17.8958H146.942C146.754 18.4781 146.41 18.9742 145.902 19.3323Z" fill="#F15B55"/>
<path fill-rule="evenodd" clip-rule="evenodd" d="M205.515 17.8964V22.6289H226.593V77.3538H192.548C192.504 77.4678 192.473 77.5766 192.439 77.6787C192.145 78.6403 191.887 79.5423 191.579 81.9642C191.579 82.0146 191.571 82.0584 191.571 82.1022H231.343V17.8964H205.515Z" fill="#F15B55"/>
<path fill-rule="evenodd" clip-rule="evenodd" d="M85.2382 18.1045C86.7902 19.269 87.9155 20.809 88.7208 22.6287H90.0315C89.9568 22.1274 89.9835 21.6181 90.1555 21.0955C90.5355 20.1219 90.9608 19.4839 91.5128 19.0383C91.9115 18.6841 92.5875 18.326 93.5648 17.8962H84.9182C85.0168 17.9718 85.1408 18.0223 85.2382 18.1045Z" fill="#F15B55"/>
<path fill-rule="evenodd" clip-rule="evenodd" d="M115.564 81.8402C114.679 81.2301 114.377 80.1119 114.184 78.6277C114.141 78.2643 114.113 77.808 114.084 77.3531H109.245C108.991 77.824 108.768 78.076 108.533 78.2497C108.123 78.6211 107.473 78.9553 106.432 78.9553C105.027 78.9553 104.213 78.3969 103.776 77.9234C103.744 77.8783 103.705 77.8425 103.667 77.808C103.236 78.0428 102.857 78.2298 102.528 78.3784C100.124 79.5734 97.8588 80.1849 95.8575 80.1849C93.7255 80.1849 91.9868 79.5336 90.7068 78.2643C90.4335 77.9752 90.1975 77.6727 89.9841 77.3531H80.1988C79.6295 78.5641 79.0748 79.7618 78.5095 80.9675L77.9828 82.1015H116.043C115.877 82.014 115.731 81.9569 115.564 81.8402Z" fill="#F15B55"/>
<path fill-rule="evenodd" clip-rule="evenodd" d="M71.6416 77.3532H71.2429C71.3016 77.5005 71.3643 77.6623 71.4123 77.7962C71.4949 77.6503 71.5669 77.5071 71.6416 77.3532Z" fill="#F15B55"/>
<path fill-rule="evenodd" clip-rule="evenodd" d="M103.569 71.5803C103.091 70.2738 102.689 69.3135 102.382 68.7127C101.374 66.808 100.414 65.9313 99.5074 66.117C97.5874 66.4525 96.102 67.3624 95.066 68.844C94.1807 70.1094 93.7567 71.4331 93.7567 72.8682C93.7567 73.9054 93.9554 74.5686 94.4127 74.814C94.886 75.0514 95.4434 75.1456 96.0354 75.1456C97.3994 75.1456 99.054 74.5567 100.997 73.3855C101.669 73.0062 102.521 72.4013 103.569 71.5803ZM107.29 76.781C107.154 76.9415 106.87 77.0516 106.433 77.0516C105.862 77.0516 105.451 76.903 105.195 76.6245C104.933 76.338 104.759 76.0356 104.683 75.7292C104.625 75.4281 104.577 75.1973 104.546 75.0077C103.409 75.7451 102.474 76.3009 101.733 76.6245C99.5074 77.732 97.5367 78.2639 95.858 78.2639C94.2447 78.2639 92.97 77.8076 92.0474 76.903C91.1407 75.9388 90.6754 74.6907 90.6754 73.1308C90.6754 70.9569 91.5007 68.7923 93.0994 66.6276C94.71 64.4524 96.5714 63.2281 98.666 62.9244C98.8674 62.8873 99.1514 62.8687 99.5074 62.8687C100.774 62.8687 101.907 63.2984 102.97 64.1672C104.018 64.9843 104.945 66.5825 105.767 69.0363C106.001 68.4262 106.149 67.9009 106.249 67.4792C106.577 66.0003 106.774 64.5797 106.774 63.1737C106.774 61.7041 106.61 60.3419 106.29 59.0341C106.001 57.6733 105.451 56.2647 104.683 54.7327C104.143 53.7817 103.51 53.1119 102.771 52.7193C102.038 52.2842 101.211 52.0614 100.297 52.0614C99.1167 52.0614 97.9514 52.3824 96.7727 53.031C95.578 53.6464 94.994 54.2035 94.994 54.669C94.994 54.933 94.8234 55.0696 94.4714 55.0696C94.1007 55.0696 93.67 54.933 93.2367 54.669C92.8434 54.3746 92.6287 53.9899 92.5674 53.5748C92.5674 52.4885 93.422 51.4552 95.1154 50.5148C96.8687 49.5187 98.7207 49.0067 100.69 49.0067C102.117 49.0067 103.326 49.3171 104.269 49.9352C106.367 51.2205 107.89 53.1344 108.838 55.6492C109.69 57.8019 110.105 60.3419 110.105 63.1737C110.105 66.2271 109.698 69.1809 108.918 72.0883C108.183 74.9997 107.642 76.5635 107.29 76.781Z" fill="#74797C"/>
<path fill-rule="evenodd" clip-rule="evenodd" d="M122.967 30.7471C123.315 31.0986 123.487 31.6716 123.487 32.5072C123.487 33.3667 123.253 35.4332 122.783 38.6748C121.864 44.7841 121.196 49.5842 120.744 53.0302C120.359 56.4668 120.085 59.7456 119.956 62.8679C119.879 65.9809 119.816 69.3976 119.816 73.13V76.6237C119.816 78.1968 119.695 79.3043 119.436 79.9516C119.213 80.5949 118.823 80.9344 118.273 80.9344C117.829 80.9344 117.307 80.7196 116.692 80.2872C116.423 80.0988 116.235 79.4701 116.109 78.3944C115.965 77.3121 115.908 75.9566 115.908 74.3583C115.908 70.8129 116.159 65.9265 116.629 59.6806C116.797 57.508 117.244 52.6296 117.921 45.0427C118.236 41.6167 118.529 38.3883 118.772 35.3576C119.104 32.2844 119.436 30.5773 119.816 30.2245C120.265 29.8823 120.701 29.7125 121.152 29.7125C121.699 29.7125 122.303 30.0574 122.967 30.7471Z" fill="#74797C"/>
<path fill-rule="evenodd" clip-rule="evenodd" d="M137.673 30.7471C138.017 31.0986 138.193 31.6716 138.193 32.5072C138.193 33.3667 137.962 35.4332 137.477 38.6748C136.566 44.7841 135.882 49.5697 135.464 53.0302C135.058 56.4668 134.8 59.7456 134.662 62.8679C134.569 65.9809 134.538 69.3976 134.538 73.13V76.6237C134.538 78.1968 134.405 79.3043 134.158 79.9516C133.912 80.5949 133.541 80.9344 132.97 80.9344C132.533 80.9344 132.005 80.7196 131.39 80.2872C131.133 80.0988 130.937 79.4701 130.816 78.3944C130.676 77.3121 130.613 75.9566 130.613 74.3583C130.613 70.8129 130.848 65.9093 131.336 59.6806C131.501 57.508 131.942 52.6296 132.642 45.0427C132.938 41.6167 133.225 38.3883 133.474 35.3576C133.806 32.2844 134.158 30.5773 134.538 30.2245C134.972 29.8796 135.417 29.7125 135.852 29.7125C136.406 29.7125 137.009 30.0574 137.673 30.7471Z" fill="#74797C"/>
<path fill-rule="evenodd" clip-rule="evenodd" d="M157.462 53.2336C156.657 53.2336 155.953 53.2761 155.394 53.3729C153.775 53.6302 152.102 54.2218 150.347 55.1197C149.249 55.6742 148.091 56.5681 146.829 57.7208C146.426 58.1067 145.906 58.6466 145.265 59.3562C146.426 59.079 147.333 58.8415 148.005 58.6399C150.046 57.986 151.614 57.295 152.693 56.5681C154.261 55.4619 155.867 54.3743 157.462 53.2336ZM169.487 62.8499C170.135 63.3313 170.483 63.9109 170.483 64.6099C170.483 65.6127 169.979 66.4284 168.971 67.0717C165.421 69.9605 162.025 72.4011 158.717 74.3071C155.089 76.3815 152.071 77.4161 149.609 77.4161C148.577 77.4161 147.614 77.2224 146.754 76.8404C144.659 75.8802 142.907 74.2713 141.535 72.0297C140.194 69.7735 139.503 67.4059 139.503 64.9376C139.503 64.5436 139.522 64.1669 139.562 63.7664C139.562 63.7173 139.627 63.3565 139.765 62.6734C140.499 59.2116 142.63 56.2657 146.165 53.8822C149.726 51.455 153.397 50.2427 157.142 50.2427C159.577 50.2427 161.578 50.8064 163.15 51.9351C162.278 52.9219 161.422 53.9127 160.531 54.8624C158.447 56.4673 156.187 57.9648 153.737 59.3562C152.438 60.0857 150.531 60.8629 148.005 61.6959C147.731 61.7715 146.317 62.2251 143.69 63.0528C143.595 63.2597 143.545 63.4613 143.545 63.6404C143.415 64.3447 143.35 64.8911 143.35 65.3368C143.35 66.1618 143.474 67.008 143.69 67.9365C143.947 68.792 144.393 69.7046 145.046 70.6582C145.683 71.7883 146.461 72.6571 147.274 73.2499C148.154 73.8256 149.241 74.1094 150.538 74.1094C152.755 74.1094 155.953 72.6995 160.085 69.8823C163.529 67.5518 165.586 65.878 166.293 64.9376C166.691 64.2532 166.977 63.7664 167.134 63.5157C167.63 62.8498 168.095 62.5315 168.565 62.5315C168.854 62.5315 169.143 62.6376 169.487 62.8499Z" fill="#74797C"/>
<path fill-rule="evenodd" clip-rule="evenodd" d="M192.759 59.7299C192.313 64.0433 191.919 68.0105 191.579 71.7018C190.96 77.8071 190.331 76.2619 189.667 81.7398C189.381 84.6286 188.932 88.0507 188.376 91.9264C188.024 94.2422 187.927 95.4625 188.052 95.6402C188.173 95.8232 188.345 96.192 188.56 96.7438C188.837 97.3473 188.955 97.8619 188.955 98.2479C188.955 98.8023 188.815 99.2281 188.517 99.5331C188.196 99.8528 187.611 100 186.743 100C185.741 100 185.007 99.7851 184.584 99.3395C184.193 98.9628 184.005 98.4733 184.005 97.8619C184.005 96.6323 184.193 95.9718 184.584 95.8431C184.987 95.7344 185.893 96.192 187.336 82.4746C187.677 78.713 188.024 74.9713 188.376 71.2495C188.736 67.5171 188.908 63.461 188.908 59.0787C187.853 60.3003 186.832 61.5139 185.835 62.7236C183.22 65.7199 181.073 68.0105 179.373 69.6181C176.7 72.0825 174.792 73.3134 173.603 73.3134C172.348 73.3134 171.711 71.8517 171.711 68.9111C171.711 67.5622 171.817 65.9692 172.024 64.1494C172.024 64.0685 172.52 60.8746 173.483 54.6062C173.74 52.4893 173.877 51.3818 173.877 51.2836C174.123 49.6747 174.647 48.7741 175.441 48.5592C175.773 48.4266 176.281 48.5738 176.941 49.0075C177.583 49.4519 177.912 49.9188 177.912 50.4467C177.963 50.7809 177.528 53.1923 176.613 57.6528C175.761 62.1161 175.316 65.0169 175.316 66.3578C175.316 67.0635 175.409 67.476 175.569 67.6007C176.14 68.0835 178.255 66.2862 181.911 62.2142C183.475 60.482 185.557 58.1078 188.115 55.1195C188.345 54.8622 188.599 54.4085 188.908 53.7586C189.467 52.6299 190.045 52.0609 190.597 52.0609C190.909 52.0609 191.231 52.1245 191.579 52.2572C191.919 52.3818 192.247 53.0265 192.505 54.13C192.759 55.2349 192.888 56.4419 192.888 57.7828C192.888 58.133 192.868 58.5097 192.833 58.8864C192.783 59.2432 192.759 59.5283 192.759 59.7299Z" fill="#74797C"/>
<path fill-rule="evenodd" clip-rule="evenodd" d="M67.49 28.1153C67.6487 28.4548 67.7367 28.7374 67.7367 29.0172C67.7367 29.7746 67.126 30.3768 65.9927 30.8198C65.6273 30.9352 65.1207 31.0466 64.4833 31.1792C63.8327 31.3039 61.5327 32.2735 57.5687 34.1105C53.03 36.2208 49.1393 37.8641 45.8447 39.0247C40.7393 40.8034 36.5913 41.7106 33.39 41.7106C31.9807 41.7106 30.7233 41.57 29.594 41.2928C28.506 41.0063 27.5353 40.5182 26.658 39.8059C25.086 38.5578 23.9193 37.193 23.1553 35.6769C22.4433 34.149 22.0793 32.5016 22.0793 30.703C22.0793 25.432 25.0073 19.6742 30.8527 13.4111C36.142 7.69178 41.5873 3.7551 47.15 1.49363C47.7633 1.25356 48.35 1.07051 48.974 0.953793C49.5993 0.805241 50.086 0.725658 50.406 0.725658C51.2367 0.725658 51.8153 1.02277 52.0953 1.61433C52.2353 1.98174 52.33 2.36771 52.33 2.75236C52.33 3.40228 52.0087 3.88243 51.3727 4.18882C50.7153 4.51246 49.9807 4.75253 49.15 4.90506C46.5473 5.47408 43.378 7.22755 39.6487 10.1854C35.95 13.0901 32.7873 16.3968 30.1393 20.108C27.17 24.2529 25.694 27.8752 25.694 30.9352C25.694 32.2615 25.9153 33.4181 26.402 34.466C26.9353 35.5111 27.7607 36.4277 28.8767 37.2341C29.8353 37.8986 31.2727 38.2448 33.1487 38.2448C35.9873 38.2448 39.8607 37.4118 44.7553 35.734C48.0727 34.5641 51.9873 32.9698 56.474 30.9352C58.5313 29.9709 60.5607 29.0172 62.6287 28.0755C63.026 27.8752 63.4913 27.6511 64.05 27.407C64.6553 27.1683 65.2113 27.0502 65.67 27.0502C66.4847 27.0502 67.0913 27.407 67.49 28.1153Z" fill="#74797C"/>
<path fill-rule="evenodd" clip-rule="evenodd" d="M84.1866 24.2314C83.7919 23.283 83.3212 22.5787 82.7946 22.1477C82.1692 21.5786 81.2346 21.2325 79.9759 21.0667L80.0466 21.377C78.2799 22.0376 76.9172 22.9024 75.9652 23.9343C74.3452 25.6639 73.0292 28.0275 71.9932 31.0463C71.7372 31.74 71.6079 32.5279 71.6079 33.4603C71.6079 34.7243 71.8506 35.9207 72.3372 37.0402C72.8572 38.1636 73.6159 38.8998 74.5599 39.2566C74.8866 39.3733 75.2359 39.4343 75.5866 39.4343C76.8719 39.4343 78.3146 38.8467 79.9372 37.6397C81.5186 36.3929 82.6052 35.2058 83.1759 34.0479C83.7759 32.8939 84.2106 31.8249 84.4959 30.8779C84.8119 29.8804 84.9746 28.8618 84.9746 27.8086C84.9746 26.5738 84.7186 25.3906 84.1866 24.2314ZM87.8652 26.5154C87.9359 26.8775 87.9706 27.2224 87.9706 27.5752V28.6522C87.9706 32.5743 86.4426 35.9353 83.3506 38.7791C80.5906 41.2925 77.7519 42.5393 74.8652 42.5393C74.0226 42.5393 73.2732 42.3921 72.6292 42.0698C71.5052 41.465 70.5666 40.4211 69.7626 38.8998C68.8426 37.1755 68.3652 35.3517 68.3652 33.3913C68.3652 32.6724 68.4519 31.9018 68.6146 31.1113C68.7799 30.3261 69.0519 29.5329 69.3946 28.7371C71.0079 25.0524 72.6292 22.3426 74.3386 20.5918C76.0452 18.8224 77.7252 17.955 79.3826 17.955C81.0039 17.955 82.5812 18.5121 84.0639 19.6329C86.1572 21.1953 87.4199 23.482 87.8652 26.5154Z" fill="#74797C"/>
<path fill-rule="evenodd" clip-rule="evenodd" d="M119.71 16.8144C119.71 17.2654 119.573 17.5692 119.294 17.7655C119.065 17.9299 118.706 18.0042 118.207 18.0042C117.861 18.0042 117.509 17.9962 117.13 17.9405C116.817 17.9087 116.514 17.8795 116.235 17.8278C114.579 17.8278 112.713 17.9962 110.625 18.3132C109.225 18.5122 107.747 18.7894 106.183 19.1542C106.053 20.3943 105.961 21.6226 105.883 22.8614C105.637 25.607 105.419 28.7372 105.234 32.1898C105.027 35.6556 104.91 38.3879 104.91 40.3987C104.91 40.469 104.957 40.7104 105.054 41.1799C105.162 41.6084 105.234 41.9307 105.234 42.1243C105.234 42.566 105.089 42.9148 104.861 43.2C104.625 43.4759 104.19 43.6218 103.518 43.6218C102.905 43.6218 102.374 43.3234 101.974 42.7265C101.622 42.1243 101.438 41.3073 101.438 40.3297C101.438 38.0139 101.454 36.0999 101.489 34.5826C101.567 33.0254 101.782 30.7798 102.091 27.8088C102.217 26.5739 102.374 25.2276 102.571 23.762C102.771 22.238 102.939 20.9156 103.045 19.8014C102.355 19.9699 101.743 20.1078 101.317 20.2179C100.101 20.592 98.9873 20.9978 97.9513 21.4992C97.13 21.8374 96.3793 22.2831 95.6527 22.8057C94.622 23.5047 93.9873 23.8615 93.7913 23.8204C93.1993 23.6599 92.678 23.3853 92.2847 23.0458C91.9407 22.6293 91.8193 22.1902 91.9953 21.73C92.198 21.165 92.4447 20.7604 92.73 20.527C93.15 20.1622 94.1513 19.6887 95.7233 19.0932C97.7287 18.3278 99.0647 17.8278 99.7567 17.5904C100.445 17.3583 101.703 16.9975 103.518 16.5027C103.866 15.2427 104.097 14.1445 104.269 13.2253C104.731 10.4226 104.979 7.60145 104.979 4.72852C104.979 4.52559 104.957 4.15421 104.91 3.60641C104.881 2.98965 104.861 2.62092 104.861 2.46308C104.861 1.7402 104.933 1.15262 105.089 0.721546C105.313 0.238747 105.683 0 106.249 0C106.839 0 107.31 0.317005 107.642 0.953667C107.947 1.60757 108.109 2.71774 108.109 4.30143C108.109 5.18745 108.033 6.30824 107.877 7.66645C107.747 9.01669 107.583 10.3232 107.391 11.6124C106.995 14.0463 106.739 15.4934 106.669 15.9788C107.831 15.8117 108.791 15.7122 109.555 15.6101C111.879 15.3873 114.085 15.2573 116.181 15.2573C117.173 15.2573 118.007 15.3594 118.706 15.5637C119.387 15.7122 119.71 16.146 119.71 16.8144Z" fill="#74797C"/>
<path fill-rule="evenodd" clip-rule="evenodd" d="M145.218 16.8144C145.218 17.2654 145.046 17.5692 144.781 17.7655C144.546 17.9299 144.186 18.0042 143.701 18.0042C143.338 18.0042 142.966 17.9962 142.618 17.9405C142.294 17.9087 141.993 17.8795 141.711 17.8278C140.077 17.8278 138.217 17.9962 136.113 18.304C134.722 18.5122 133.239 18.7894 131.673 19.1396C131.539 20.3943 131.453 21.6226 131.367 22.8614C131.133 25.607 130.906 28.7372 130.714 32.1898C130.507 35.6556 130.406 38.3879 130.406 40.3987C130.406 40.469 130.449 40.7104 130.519 41.1799C130.649 41.6084 130.714 41.9307 130.714 42.1243C130.714 42.566 130.597 42.9148 130.347 43.2C130.097 43.4759 129.647 43.6218 129.006 43.6218C128.39 43.6218 127.873 43.3234 127.462 42.7265C127.106 42.1243 126.911 41.3073 126.911 40.3297C126.911 38.0139 126.954 36.0999 126.989 34.5826C127.083 33.0254 127.253 30.7798 127.583 27.8088C127.689 26.5739 127.873 25.2276 128.054 23.762C128.269 22.238 128.434 20.9156 128.543 19.8014C127.818 19.9699 127.239 20.1078 126.809 20.2179C125.601 20.592 124.479 20.9978 123.43 21.4992C122.622 21.8374 121.882 22.2738 121.153 22.8057C120.109 23.5047 119.471 23.8615 119.279 23.8204C118.687 23.6599 118.154 23.3853 117.771 23.0458C117.407 22.6293 117.319 22.1902 117.486 21.7194C117.673 21.1636 117.906 20.7604 118.197 20.527C118.635 20.1622 119.651 19.6887 121.207 19.0932C123.217 18.3278 124.546 17.8278 125.259 17.5904C125.918 17.3583 127.181 16.9975 129.006 16.5027C129.346 15.2427 129.589 14.1445 129.741 13.2253C130.226 10.4226 130.469 7.60145 130.469 4.72852C130.469 4.52559 130.449 4.15421 130.406 3.60641C130.347 2.98965 130.347 2.62092 130.347 2.46308C130.347 1.7402 130.437 1.15262 130.597 0.721546C130.805 0.238747 131.165 0 131.723 0C132.341 0 132.786 0.317005 133.118 0.953667C133.427 1.60757 133.591 2.71774 133.591 4.30143C133.591 5.18745 133.514 6.30824 133.35 7.65451C133.239 9.01669 133.071 10.3232 132.873 11.6124C132.474 14.0463 132.227 15.4934 132.165 15.9788C133.31 15.8117 134.279 15.7122 135.026 15.6101C137.371 15.3873 139.561 15.256 141.649 15.256C142.669 15.256 143.498 15.3594 144.186 15.5637C144.858 15.7122 145.218 16.146 145.218 16.8144Z" fill="#74797C"/>
<path fill-rule="evenodd" clip-rule="evenodd" d="M157.935 24.2314C157.536 23.283 157.071 22.5787 156.559 22.1344C155.902 21.5786 154.972 21.2179 153.724 21.0667L153.791 21.3518C152.032 22.0376 150.64 22.9024 149.698 23.9303C148.091 25.6639 146.759 28.0275 145.734 31.0463C145.484 31.74 145.367 32.5279 145.367 33.4457C145.367 34.7243 145.61 35.9207 146.082 37.0402C146.602 38.1636 147.352 38.8998 148.311 39.2566C148.639 39.368 148.991 39.4197 149.331 39.4197C150.616 39.4197 152.071 38.8467 153.666 37.6397C155.268 36.3929 156.371 35.2058 156.903 34.0333C157.516 32.8939 157.97 31.8249 158.236 30.8779C158.54 29.8804 158.716 28.8618 158.716 27.8086C158.716 26.5738 158.447 25.3906 157.935 24.2314ZM161.602 26.5021C161.692 26.8656 161.727 27.2224 161.727 27.5752V28.6522C161.727 32.5743 160.187 35.9353 157.099 38.7791C154.343 41.2925 151.504 42.5393 148.611 42.5393C147.791 42.5393 147.036 42.3815 146.399 42.0698C145.272 41.465 144.291 40.4211 143.498 38.8998C142.571 37.1755 142.126 35.3292 142.126 33.3847C142.126 32.6724 142.192 31.9018 142.364 31.1113C142.502 30.3141 142.779 29.517 143.139 28.7371C144.744 25.0524 146.399 22.3426 148.076 20.5812C149.811 18.8224 151.468 17.9404 153.127 17.9404C154.768 17.9404 156.328 18.5121 157.802 19.6329C159.91 21.1847 161.156 23.482 161.602 26.5021Z" fill="#74797C"/>
<path fill-rule="evenodd" clip-rule="evenodd" d="M186.61 44.9951C186.324 45.1967 186.031 45.2776 185.695 45.2776C185.054 45.2776 184.455 45.019 183.9 44.5163C183.326 44.003 183.052 43.3663 183.052 42.601C183.052 42.2363 183.115 41.9538 183.182 41.7588C183.22 41.6421 183.228 41.406 183.228 41.0439C183.075 39.3673 182.931 37.5316 182.822 35.5341C182.696 33.5101 182.638 31.7407 182.638 30.2114V26.268C182.638 25.2945 182.622 24.1963 182.563 22.9097C182.563 21.5992 182.391 20.7835 182.012 20.4572C180.871 22.0157 179.706 23.5556 178.538 25.069C176.699 28.4552 175.074 32.0922 173.67 35.9572C173.111 37.3446 172.559 39.041 172.059 41.0439C171.751 42.0798 171.462 42.6872 171.106 42.8995C170.762 43.1409 170.422 43.2576 170.066 43.2576C169.538 43.2576 169.123 43.0454 168.795 42.601C168.518 42.166 168.392 41.5412 168.392 40.7348C168.506 38.7784 168.588 36.7477 168.674 34.5831C168.795 32.3972 168.854 30.4223 168.854 28.6515C168.854 25.9869 168.967 23.5967 169.174 21.4719C169.198 20.9984 169.35 19.8007 169.655 17.896C169.756 16.9688 170.199 16.502 170.98 16.502C171.751 16.502 172.419 16.8375 172.888 17.4556C173.06 17.6718 173.138 17.9968 173.138 18.4225C173.138 18.717 173.032 19.6322 172.818 21.1841C172.63 22.7412 172.532 24.1963 172.532 25.5505C172.532 26.2681 172.52 26.9843 172.462 27.7111C172.419 28.4274 172.419 28.8624 172.419 29.0163C172.419 29.3718 172.419 29.6715 172.462 29.9169C174.068 26.7283 175.335 24.3488 176.25 22.8049C179.107 18.0883 181.316 15.9038 182.868 16.2181C184.248 16.4834 185.128 18.1559 185.511 21.1841C185.8 23.2917 185.948 27.0493 185.948 32.4383C185.948 37.7292 185.992 40.5504 186.136 40.8701C186.484 41.5412 186.707 42.0108 186.786 42.2363C187.016 42.8318 187.142 43.3663 187.142 43.8027C187.142 44.3492 186.966 44.7484 186.61 44.9951Z" fill="#74797C"/>
<path fill-rule="evenodd" clip-rule="evenodd" d="M91.9717 41.4065C92.3571 41.6094 92.6397 41.8747 92.8104 42.1798C93.0077 42.4795 93.0917 42.8257 93.0917 43.2011C93.0917 43.7343 92.9437 44.2396 92.6771 44.7052C92.4744 45.1973 92.1984 45.5899 91.8197 45.9507C91.5477 46.2504 90.8344 48.0874 89.7411 51.479C88.9984 53.8492 88.0064 56.3348 86.7437 58.8828C86.5237 59.3192 84.6344 63.3434 81.0597 70.9687C79.2211 74.8749 77.4117 78.7837 75.5864 82.6766C73.9597 86.0814 73.0451 87.9158 72.8224 88.1347C72.6464 88.3575 72.3064 88.5193 71.8371 88.6559C71.4064 88.7859 70.9531 88.8403 70.4744 88.8403C69.8584 88.8403 69.3797 88.7382 69.0517 88.5193C68.9091 88.4291 68.2477 86.6889 67.0691 83.2536C65.1997 77.842 63.7171 73.6135 62.6344 70.5907C60.5317 64.8674 58.3664 59.4226 56.0864 54.2723C55.9184 53.9169 55.3091 53.0189 54.2571 51.5466C53.4464 50.4152 53.0157 49.4735 53.0157 48.7453C53.0157 48.0874 53.2677 47.4999 53.7371 46.9919C54.4011 46.2995 54.9837 45.9507 55.5077 45.9507C56.6451 45.9507 57.8344 47.35 59.1011 50.1778C59.8477 51.7748 60.9984 55.0005 62.5544 59.8603C64.1197 64.7135 65.3824 68.2457 66.3424 70.4501C67.2984 72.6201 68.1704 74.7489 68.9691 76.8406C70.0504 79.6525 70.7997 81.5346 71.1997 82.475C72.0091 80.833 72.8731 79.1816 73.7291 77.5237C75.5357 74.022 77.3811 70.3294 79.3037 66.5002C81.5971 61.7624 83.4197 57.9504 84.7184 55.031C85.4691 53.4142 86.0704 51.7748 86.5557 50.1778C87.3237 47.6577 87.7317 46.0793 87.7317 45.432C87.7317 44.6017 88.0197 43.6918 88.6357 42.6865C89.2877 41.6638 90.0704 41.1399 90.9997 41.1399C91.3411 41.1399 91.6651 41.2487 91.9717 41.4065Z" fill="#74797C"/>
<path fill-rule="evenodd" clip-rule="evenodd" d="M190.632 17.6407H195.507V19.2376H193.993V25.6639H192.095V19.2376H190.632V17.6407Z" fill="#74797C"/>
<path fill-rule="evenodd" clip-rule="evenodd" d="M196.289 25.6644V17.6412L198.947 17.6346L199.901 22.3644L200.945 17.6346H203.575V25.6485H201.793L201.973 19.3814L200.621 25.6485H199.205L197.919 19.3814L198.059 25.6485L196.289 25.6644Z" fill="#74797C"/>
</g>
<defs>
<clipPath id="clip0_103_619">
<rect width="231.343" height="100" fill="white"/>
</clipPath>
</defs>
</svg>
