<svg width="60" height="60" viewBox="0 0 60 60" fill="none" xmlns="http://www.w3.org/2000/svg">
<path d="M32.5 12.5C32.5 11.1193 31.3807 10 30 10C28.6193 10 27.5 11.1193 27.5 12.5C27.5 13.8807 28.6193 15 30 15C31.3807 15 32.5 13.8807 32.5 12.5Z" fill="black" stroke="black" stroke-width="5" stroke-linecap="round" stroke-linejoin="round"/>
<path d="M32.5 30C32.5 28.6193 31.3807 27.5 30 27.5C28.6193 27.5 27.5 28.6193 27.5 30C27.5 31.3807 28.6193 32.5 30 32.5C31.3807 32.5 32.5 31.3807 32.5 30Z" fill="black" stroke="black" stroke-width="5" stroke-linecap="round" stroke-linejoin="round"/>
<path d="M32.5 47.5C32.5 46.1193 31.3807 45 30 45C28.6193 45 27.5 46.1193 27.5 47.5C27.5 48.8807 28.6193 50 30 50C31.3807 50 32.5 48.8807 32.5 47.5Z" fill="black" stroke="black" stroke-width="5" stroke-linecap="round" stroke-linejoin="round"/>
</svg>
