<svg width="60" height="60" viewBox="0 0 60 60" fill="none" xmlns="http://www.w3.org/2000/svg">
<path fill-rule="evenodd" clip-rule="evenodd" d="M28.1767 5C24.6684 5 21.8242 7.84415 21.8242 11.3526C21.8242 11.861 21.4736 12.5394 20.6356 12.9946C20.3777 13.1346 20.1234 13.2802 19.8728 13.4313C19.037 13.9352 18.2524 13.9028 17.7917 13.6392C14.7322 11.8887 10.8335 12.9333 9.05912 15.9791L7.29807 19.0019C5.5203 22.0535 6.56945 25.9692 9.63482 27.723C10.0792 27.9775 10.4971 28.6243 10.4768 29.5865C10.4739 29.724 10.4724 29.862 10.4724 30C10.4724 30.1383 10.4739 30.276 10.4768 30.4135C10.4971 31.376 10.0793 32.0228 9.63487 32.277C6.56952 34.0308 5.52037 37.9465 7.29815 40.998L9.05925 44.021C10.8336 47.0667 14.7323 48.1113 17.7918 46.3607C18.2525 46.0973 19.037 46.0648 19.8728 46.5688C20.1234 46.7197 20.3777 46.8655 20.6356 47.0055C21.4736 47.4605 21.8242 48.139 21.8242 48.6475C21.8242 52.1558 24.6684 55 28.1767 55H31.8235C35.332 55 38.176 52.1558 38.176 48.6475C38.176 48.139 38.5267 47.4605 39.3647 47.0055C39.6225 46.8655 39.877 46.7197 40.1275 46.5688C40.9632 46.0648 41.7477 46.0973 42.2085 46.3607C45.268 48.1113 49.1667 47.0667 50.941 44.021L52.7022 40.998C54.48 37.9465 53.4307 34.0308 50.3655 32.277C49.921 32.0228 49.5032 31.376 49.5235 30.4135C49.5265 30.276 49.528 30.138 49.528 30C49.528 29.862 49.5265 29.724 49.5235 29.5865C49.5032 28.624 49.921 27.9772 50.3655 27.723C53.431 25.9692 54.48 22.0535 52.7022 19.0019L50.9412 15.9791C49.1667 12.9333 45.268 11.8887 42.2085 13.6392C41.748 13.9028 40.9632 13.9352 40.1275 13.4313C39.877 13.2802 39.6227 13.1346 39.3647 12.9946C38.5267 12.5394 38.176 11.861 38.176 11.3526C38.176 7.84415 35.332 5 31.8235 5H28.1767ZM30 22.5C25.8577 22.5 22.5 25.8577 22.5 30C22.5 34.1423 25.8577 37.5 30 37.5C34.1422 37.5 37.5 34.1423 37.5 30C37.5 25.8577 34.1422 22.5 30 22.5Z" fill="black"/>
</svg>
