<svg width="60" height="60" viewBox="0 0 60 60" fill="none" xmlns="http://www.w3.org/2000/svg">
<path d="M7.5 32.5V52.5C7.5 53.163 7.7634 53.7989 8.23224 54.2678C8.70108 54.7366 9.33696 55 10 55H50C50.663 55 51.2989 54.7366 51.7678 54.2678C52.2366 53.7989 52.5 53.163 52.5 52.5V32.5C52.9262 32.4987 53.3449 32.3885 53.7165 32.1798C54.0881 31.9712 54.4002 31.671 54.6231 31.3078C54.846 30.9446 54.9724 30.5304 54.9902 30.1046C55.0081 29.6789 54.9168 29.2556 54.725 28.875L47.5 14.425V7.5C47.5 6.83696 47.2366 6.20107 46.7678 5.73223C46.2989 5.26339 45.663 5 45 5H15C14.337 5 13.7011 5.26339 13.2322 5.73223C12.7634 6.20107 12.5 6.83696 12.5 7.5V14.5L5.275 28.875C5.08323 29.2556 4.99192 29.6789 5.00976 30.1046C5.0276 30.5304 5.15398 30.9446 5.37691 31.3078C5.59984 31.671 5.91192 31.9712 6.2835 32.1798C6.65509 32.3885 7.07384 32.4987 7.5 32.5ZM32.5 50H27.5V42.5C27.5 41.837 27.7634 41.2011 28.2322 40.7322C28.7011 40.2634 29.337 40 30 40C30.663 40 31.2989 40.2634 31.7678 40.7322C32.2366 41.2011 32.5 41.837 32.5 42.5V50ZM47.5 50H37.5V42.5C37.5 40.5109 36.7098 38.6032 35.3033 37.1967C33.8968 35.7902 31.9891 35 30 35C28.0109 35 26.1032 35.7902 24.6967 37.1967C23.2902 38.6032 22.5 40.5109 22.5 42.5V50H12.5V32.5H47.5V50ZM42.5 10V12.5H17.5V10H42.5ZM16.6 17.5H43.4L48.4 27.5H11.55L16.6 17.5Z" fill="black"/>
</svg>
