<svg width="60" height="60" viewBox="0 0 60 60" fill="none" xmlns="http://www.w3.org/2000/svg">
<path d="M38.3055 25.9575C38.449 27.3642 38.5313 28.7257 38.5313 30C38.5313 32.3852 38.243 35.0787 37.802 37.802C35.0788 38.243 32.3853 38.5312 30 38.5312C27.6255 38.5312 24.9328 38.2437 22.1978 37.8012C21.757 35.078 21.4688 32.385 21.4688 30C21.4688 28.7262 21.551 27.3645 21.6947 25.9575C24.5652 26.417 27.4288 26.7187 30 26.7187C32.5715 26.7187 35.435 26.417 38.3055 25.9575Z" fill="black"/>
<path d="M42.188 25.2485C42.3655 26.8947 42.4688 28.4975 42.4688 30C42.4688 32.1922 42.2492 34.5972 41.8997 37.0382C46.8562 36.004 51.4375 34.6827 53.8918 33.9305C54.6848 33.6875 54.9965 33.5907 55.4145 33.4235C55.6235 33.34 55.815 33.255 56.0648 33.1357C56.187 32.1075 56.25 31.061 56.25 30C56.25 27.195 55.81 24.4928 54.9955 21.9586L54.7833 22.0254C52.217 22.8061 47.413 24.1862 42.188 25.2485Z" fill="black"/>
<path d="M53.5042 18.2987C50.9245 19.0805 46.4475 20.351 41.6498 21.3401C40.5445 14.6232 38.6075 7.92378 37.6755 4.88995C44.6055 7.00568 50.3182 11.9117 53.5042 18.2987Z" fill="black"/>
<path d="M37.7792 22.0557C35.0632 22.4945 32.3782 22.7812 30 22.7812C27.6217 22.7812 24.9369 22.4945 22.2211 22.0557C23.2618 15.7001 25.1195 9.20765 26.0695 6.10833C26.3125 5.31515 26.4092 5.0036 26.5765 4.58545C26.66 4.37655 26.745 4.18495 26.8642 3.93535C27.8925 3.81295 28.939 3.75 30 3.75C31.1085 3.75 32.2007 3.8187 33.2732 3.95207C33.296 4.0391 33.317 4.11697 33.3377 4.19065C33.3992 4.40833 33.4955 4.71425 33.657 5.2276L33.674 5.28153C34.4837 7.85558 36.6297 15.035 37.7792 22.0557Z" fill="black"/>
<path d="M18.3501 21.34C19.4502 14.6527 21.3746 7.9894 22.3048 4.95452L22.3246 4.88992C15.3944 7.00562 9.68175 11.9116 6.49587 18.2986C9.07545 19.0805 13.5524 20.3509 18.3501 21.34Z" fill="black"/>
<path d="M5.0046 21.9586C4.18995 24.4928 3.75 27.195 3.75 30C3.75 31.0972 3.81732 32.1787 3.94807 33.2407L4.36177 33.3787L4.36507 33.3797L4.36913 33.3812L4.37198 33.382C4.50513 33.4262 8.40762 34.715 13.5469 35.9937C14.9971 36.3545 16.5327 36.711 18.1001 37.0377C17.7506 34.597 17.5312 32.1922 17.5312 30C17.5312 28.497 17.6343 26.8942 17.8118 25.2485C12.5857 24.1859 7.78045 22.8053 5.21492 22.0247L5.19708 22.0193L5.0046 21.9586Z" fill="black"/>
<path d="M30 42.4688C32.1923 42.4688 34.5973 42.2492 37.0383 41.8997C36.004 46.8562 34.6828 51.4375 33.9305 53.8915C33.6875 54.6848 33.5908 54.9963 33.4235 55.4145C33.34 55.6235 33.255 55.815 33.1358 56.0648C32.1075 56.187 31.061 56.25 30 56.25C28.939 56.25 27.8925 56.187 26.8643 56.0648C26.745 55.815 26.66 55.6235 26.5765 55.4145C26.4093 54.9965 26.3125 54.6848 26.0695 53.8918C25.3173 51.4378 23.9962 46.8568 22.962 41.9008C25.3948 42.249 27.8003 42.4688 30 42.4688Z" fill="black"/>
<path d="M12.5962 39.8148C9.34632 39.006 6.57837 38.1938 4.88992 37.6755C7.43145 46.0005 13.9995 52.5685 22.3246 55.11L22.3048 55.0455C21.4926 52.3955 19.9224 46.9793 18.8048 41.196C16.6312 40.7758 14.518 40.2928 12.5962 39.8148Z" fill="black"/>
<path d="M55.0455 37.6953C52.3955 38.5075 46.9787 40.0778 41.1952 41.1953C40.0777 46.9788 38.5075 52.3953 37.6952 55.0455L37.6755 55.11C46.0005 52.5685 52.5685 46.0005 55.11 37.6755L55.0455 37.6953Z" fill="black"/>
<path d="M4.02575 33.3075C4.11662 33.3192 4.1907 33.3317 4.21527 33.3372C4.2368 33.3425 4.27052 33.3515 4.28275 33.3547L4.30977 33.3625L4.32432 33.367L4.33962 33.3717L4.35245 33.3757C4.34525 33.3735 4.1994 33.337 4.02575 33.3075Z" fill="black"/>
</svg>
