<svg width="60" height="60" viewBox="0 0 60 60" fill="none" xmlns="http://www.w3.org/2000/svg">
<g clip-path="url(#clip0_380_3893)">
<path d="M46.435 34.2775C47.028 34.2697 47.5945 34.0307 48.0139 33.6114C48.4332 33.192 48.6722 32.6255 48.68 32.0325C48.68 30.7875 47.6825 29.7875 46.435 29.7875C45.1875 29.7875 44.19 30.7875 44.19 32.0325C44.19 33.2825 45.19 34.2775 46.435 34.2775ZM35.3725 34.2775C35.9655 34.2697 36.532 34.0307 36.9514 33.6114C37.3707 33.192 37.6097 32.6255 37.6175 32.0325C37.6175 30.7875 36.6175 29.7875 35.3725 29.7875C34.1225 29.7875 33.1275 30.7875 33.1275 32.0325C33.1275 33.2825 34.125 34.2775 35.3725 34.2775ZM51.79 46.8775C51.6298 46.9665 51.5019 47.1039 51.4247 47.2701C51.3474 47.4363 51.3248 47.6227 51.36 47.8025C51.36 47.9225 51.36 48.045 51.4225 48.17C51.6675 49.2125 52.1575 50.8725 52.1575 50.935C52.1575 51.1175 52.22 51.24 52.22 51.365C52.22 51.4374 52.2057 51.5092 52.1779 51.5761C52.1501 51.6429 52.1094 51.7037 52.058 51.7548C52.0067 51.8059 51.9458 51.8464 51.8787 51.8739C51.8117 51.9013 51.7399 51.9153 51.6675 51.915C51.5425 51.915 51.4825 51.855 51.36 51.795L47.7375 49.705C47.473 49.5594 47.179 49.4756 46.8775 49.46C46.695 49.46 46.51 49.46 46.3875 49.52C44.6675 50.0125 42.8875 50.2575 40.985 50.2575C31.835 50.2575 24.4675 44.115 24.4675 36.495C24.4675 28.8775 31.835 22.7325 40.985 22.7325C50.1325 22.7325 57.5 28.8775 57.5 36.495C57.5 40.6125 55.29 44.36 51.79 46.88V46.8775ZM41.6825 20.2475C41.4492 20.2397 41.2159 20.2356 40.9825 20.235C30.5475 20.235 21.9675 27.385 21.9675 36.4975C21.9675 37.8825 22.1675 39.2225 22.5375 40.4975H22.315C20.1306 40.4754 17.9587 40.1661 15.855 39.5775C15.67 39.515 15.485 39.515 15.3 39.515C14.9305 39.5229 14.5698 39.629 14.255 39.8225L9.885 42.335C9.76 42.3975 9.6375 42.46 9.515 42.46C9.33658 42.458 9.16603 42.3863 9.03986 42.2601C8.91369 42.134 8.84195 41.9634 8.84 41.785C8.84 41.6 8.9 41.4775 8.9625 41.2925C9.0225 41.2325 9.5775 39.2075 9.885 37.9825C9.885 37.8575 9.945 37.675 9.945 37.5525C9.94433 37.3382 9.8941 37.1269 9.79826 36.9352C9.70242 36.7436 9.56355 36.5766 9.3925 36.4475C5.145 33.44 2.5 28.965 2.5 23.995C2.5 14.8625 11.425 7.5 22.375 7.5C31.7875 7.5 39.7 12.9225 41.6825 20.245V20.2475ZM28.7975 21.2925C30.23 21.2925 31.3625 20.1 31.3625 18.7275C31.3625 17.295 30.23 16.1625 28.7975 16.1625C27.365 16.1625 26.2325 17.295 26.2325 18.7275C26.2325 20.16 27.365 21.2925 28.7975 21.2925ZM15.6475 21.2925C17.08 21.2925 18.215 20.1 18.215 18.7275C18.215 17.295 17.08 16.1625 15.6475 16.1625C14.2175 16.1625 13.0825 17.295 13.0825 18.7275C13.0825 20.16 14.2175 21.2925 15.6475 21.2925Z" fill="black"/>
</g>
<defs>
<clipPath id="clip0_380_3893">
<rect width="60" height="60" fill="white"/>
</clipPath>
</defs>
</svg>
